<?xml version="1.0" encoding="UTF-8"?>
<svg width="48px" height="48px" viewBox="0 0 48 48" version="1.1" xmlns="http://www.w3.org/2000/svg" xmlns:xlink="http://www.w3.org/1999/xlink">
    <title>Icons/媒体平台/ Facebook-new</title>
    <defs>
        <path d="M48,23.9999435 C48,37.2547453 37.2548329,48 24,48 C10.7451671,48 0,37.2547453 0,23.9999435 C0,10.7450853 10.7451671,0 24,0 C37.2548329,0 48,10.7450853 48,23.9999435" id="path-1"></path>
        <linearGradient x1="14.6447059%" y1="14.6445538%" x2="85.3554118%" y2="85.3550933%" id="linearGradient-3">
            <stop stop-color="#0063DE" offset="0%"></stop>
            <stop stop-color="#0280FA" offset="100%"></stop>
        </linearGradient>
    </defs>
    <g id="Icons/媒体平台/-Facebook-new" stroke="none" stroke-width="1" fill="none" fill-rule="evenodd">
        <rect id="矩形" x="0" y="0" width="48" height="48"></rect>
        <g id="编组">
            <mask id="mask-2" fill="white">
                <use xlink:href="#path-1"></use>
            </mask>
            <g id="Clip-4"></g>
            <path d="M48,23.9999435 C48,37.2547453 37.2548329,48 24,48 C10.7451671,48 0,37.2547453 0,23.9999435 C0,10.7450853 10.7451671,0 24,0 C37.2548329,0 48,10.7450853 48,23.9999435" id="Fill-3" fill="url(#linearGradient-3)" mask="url(#mask-2)"></path>
            <path d="M35.6079812,31.8903908 C33.9057882,31.8903908 33.0926682,30.7662335 29.8606871,25.5660387 C29.3256847,24.6750478 28.54752,23.3610933 27.7905882,22.1246726 L27.7941459,22.1194209 C27.5441506,21.7128901 27.2990682,21.3218887 27.0579953,20.9444401 C26.7359435,20.4345119 26.4358024,19.973713 26.1820235,19.6082362 C26.1819106,19.6081233 26.1817412,19.6079539 26.1817412,19.6077845 C31.6879059,10.1745078 38.2541365,17.8463015 38.2411112,27.7550594 C38.2411112,30.3719568 37.3839247,31.8903908 35.6079812,31.8903908 Z M18.5818729,26.1558161 C15.5933929,30.8403792 14.5595859,31.8903908 12.8957365,31.8903908 C7.13206588,31.4205567 11.1261741,14.428766 17.6141365,16.2452512 C18.9522635,16.684196 20.4213459,18.084381 22.1591718,20.5159423 C22.1675294,20.5295517 22.1758871,20.5428223 22.1843012,20.5564881 C19.9408376,23.9975718 18.5818729,26.1558161 18.5818729,26.1558161 Z M31.6502965,12.2797264 C28.7600753,12.2797264 26.5008,14.4565495 24.4555482,17.2217948 C21.9856376,13.8000805 19.3074071,12.3287992 16.7873506,12.2855993 C16.6860988,12.2819287 16.5843388,12.2797264 16.4819012,12.2797264 L16.4817882,12.2869546 C10.9697506,12.4447331 6.29455059,19.4092908 6.35350588,27.6422314 C6.71909647,38.0888139 16.3307859,38.7769629 21.3921882,27.9003579 C21.39264,27.9004144 22.9291482,25.1870654 23.9861082,23.3180063 C26.8339765,28.0238588 31.0837835,36.5789069 35.5273976,35.7022595 C47.2879059,34.7960217 39.9112659,10.695956 31.6502965,12.2797264 L31.6502965,12.2797264 Z" id="Fill-5" fill="#FFFFFF" mask="url(#mask-2)"></path>
        </g>
    </g>
</svg>