<?xml version="1.0" encoding="UTF-8"?>
<svg width="48px" height="48px" viewBox="0 0 48 48" version="1.1" xmlns="http://www.w3.org/2000/svg" xmlns:xlink="http://www.w3.org/1999/xlink">
    <title>Icons/媒体平台/ TikTok</title>
    <g id="Icons/媒体平台/-TikTok" stroke="none" stroke-width="1" fill="none" fill-rule="evenodd">
        <rect id="矩形" x="0" y="0" width="48" height="48"></rect>
        <circle id="椭圆形" fill="#010101" cx="24" cy="24" r="24"></circle>
        <g id="tiktok-logo-2--1" transform="translate(10.000000, 8.000000)" fill-rule="nonzero">
            <path d="M20.7513117,11.5513392 C22.7942053,13.0274926 25.2970486,13.896118 28,13.896118 L28,8.63811209 C27.4884076,8.6383174 26.9782002,8.58434366 26.4777232,8.47707375 L26.4777232,12.6159292 C23.7749585,12.6159292 21.2724885,11.7473038 19.2290349,10.2711504 L19.2290349,21.0010619 C19.2290349,26.3687552 14.9244728,30.7198112 9.6147041,30.7198112 C7.63359756,30.7198112 5.79211861,30.1143599 4.26237508,29.0760118 C6.00828006,30.880472 8.44298962,32 11.1366076,32 C16.4467496,32 20.7514983,27.648944 20.7514983,22.2810619 L20.7514983,11.5513392 L20.7513117,11.5513392 Z M22.6291909,6.24670206 C21.5851572,5.09375811 20.8997127,3.60363422 20.7513117,1.95624779 L20.7513117,1.28 L19.3087421,1.28 C19.6718111,3.37368732 20.9103527,5.16247788 22.6291909,6.24670206 L22.6291909,6.24670206 Z M7.62071747,24.9571681 C7.03746547,24.1840649 6.72218464,23.2382153 6.72359149,22.2657699 C6.72359149,19.8107375 8.69256462,17.8203186 11.1216741,17.8203186 C11.5743161,17.8200002 12.024303,17.8902366 12.4557897,18.0285546 L12.4557897,12.6531209 C11.9516319,12.5832884 11.4428229,12.5536828 10.9340729,12.5645782 L10.9340729,16.7485546 C10.5023943,16.6102348 10.0522228,16.5399991 9.59939733,16.5403186 C7.1702878,16.5403186 5.20150134,18.5307375 5.20150134,20.9859587 C5.20150134,22.7218879 6.18561457,24.2250383 7.62071747,24.9571681 L7.62071747,24.9571681 Z" id="形状" fill="#EE1D52"></path>
            <path d="M19.2290349,10.2711504 C21.2724885,11.7473038 23.7749585,12.6159292 26.4777232,12.6159292 L26.4777232,8.47707375 C24.9690731,8.15235398 23.6334642,7.35528024 22.6291909,6.24670206 C20.9103527,5.16247788 19.6718111,3.37368732 19.3087421,1.28 L15.5195701,1.28 L15.5195701,22.2808732 C15.5109834,24.7291091 13.5453703,26.71141 11.1214875,26.71141 C9.69310462,26.71141 8.42413616,26.0232684 7.6205308,24.9571681 C6.1854279,24.2250383 5.20131468,22.7218879 5.20131468,20.9859587 C5.20131468,18.5307375 7.17010113,16.5403186 9.59921066,16.5403186 C10.0645738,16.5403186 10.5131368,16.6135693 10.9338862,16.7485546 L10.9338862,12.5645782 C5.71745145,12.6735103 1.52209015,16.9820885 1.52209015,22.2810619 C1.52209015,24.9262065 2.56687045,27.3242242 4.26237508,29.0762006 C5.79211861,30.1145487 7.63359756,30.72 9.6147041,30.72 C14.9244728,30.72 19.2290349,26.3687552 19.2290349,21.0012507 L19.2290349,10.2711504 Z" id="路径" fill="#FFFFFF"></path>
            <path d="M26.4777232,8.47707375 L26.4777232,7.3579233 C25.117181,7.35999895 23.7835147,6.97485209 22.6291909,6.24651327 C23.6509765,7.37733018 24.9964601,8.15715537 26.4777232,8.47707375 L26.4777232,8.47707375 Z M19.3087421,1.28 C19.2740589,1.07993037 19.2474677,0.878511856 19.2290349,0.676247788 L19.2290349,0 L13.9971066,0 L13.9971066,21.0010619 C13.9887066,23.4491091 12.0232802,25.43141 9.59921066,25.43141 C8.88744592,25.43141 8.2156281,25.2607434 7.6205308,24.9571681 C8.42413616,26.0232684 9.69310462,26.71141 11.1214875,26.71141 C13.5451836,26.71141 15.5109834,24.7291091 15.5195701,22.2808732 L15.5195701,1.28 L19.3087421,1.28 Z M10.9340729,12.5645782 L10.9340729,11.3731209 C10.4968907,11.3126703 10.0561399,11.2824566 9.61489077,11.2826889 C4.30456203,11.2826889 0,15.6339351 0,21.0010619 C0,24.3660649 1.69177128,27.331587 4.26256175,29.0760118 C2.56705711,27.3240354 1.52227682,24.9260177 1.52227682,22.2808732 C1.52227682,16.9820885 5.71745145,12.6735103 10.9340729,12.5645782 L10.9340729,12.5645782 Z" id="形状" fill="#69C9D0"></path>
        </g>
    </g>
</svg>